<?xml version="1.0" standalone="no"?>
<!DOCTYPE svg PUBLIC "-//W3C//DTD SVG 20010904//EN"
 "http://www.w3.org/TR/2001/REC-SVG-20010904/DTD/svg10.dtd">
<svg version="1.0" xmlns="http://www.w3.org/2000/svg"
 width="819.000000pt" height="819.000000pt" viewBox="0 0 819.000000 819.000000"
 preserveAspectRatio="xMidYMid meet">
<metadata>
Created by potrace 1.11, written by Peter Selinger 2001-2013
</metadata>
<g transform="translate(0.000000,819.000000) scale(0.100000,-0.100000)"
fill="#000000" stroke="none">
<path d="M980 7444 c-221 -46 -361 -211 -429 -506 -39 -166 -47 -249 -66 -608
-4 -88 -7 -140 -20 -435 -3 -60 -7 -155 -10 -210 -9 -179 -14 -268 -20 -395
-3 -69 -8 -144 -10 -168 -4 -43 -11 -145 -20 -281 -3 -41 -7 -102 -9 -135 -3
-34 -8 -101 -12 -150 -3 -50 -7 -97 -9 -105 -1 -9 -6 -61 -9 -116 -4 -55 -9
-111 -11 -125 -2 -14 -7 -59 -10 -100 -3 -41 -8 -86 -10 -100 -2 -14 -7 -56
-10 -95 -3 -38 -10 -108 -15 -155 -6 -47 -13 -105 -16 -130 -3 -25 -7 -60 -10
-79 -2 -18 -7 -59 -9 -90 -3 -31 -12 -101 -20 -156 -12 -90 -19 -137 -31 -230
-2 -16 -6 -46 -9 -65 -2 -19 -8 -57 -11 -85 -3 -27 -7 -57 -9 -65 -2 -8 -8
-51 -15 -95 -6 -44 -13 -91 -15 -105 -3 -14 -11 -72 -20 -130 -9 -58 -18 -116
-20 -130 -2 -14 -16 -95 -30 -180 -15 -85 -30 -173 -35 -195 -5 -22 -11 -64
-15 -94 -4 -30 -8 -63 -11 -74 -2 -11 -6 -41 -9 -66 -3 -25 -10 -75 -14 -111
-9 -70 -7 -366 4 -415 34 -165 88 -285 165 -362 114 -116 247 -160 476 -161
191 0 308 33 447 125 94 62 260 229 370 373 48 63 91 120 95 125 49 62 352
545 352 561 0 4 6 15 14 23 7 9 28 43 46 76 146 264 250 457 330 610 51 99
111 214 133 255 21 41 77 149 124 240 47 91 102 197 123 235 20 39 58 109 84
158 25 48 67 126 92 175 54 101 124 228 141 257 7 11 15 27 19 35 19 40 196
351 272 480 319 539 581 901 829 1146 230 228 396 316 598 318 184 2 308 -68
421 -236 74 -109 164 -339 205 -523 16 -76 16 -75 34 -145 9 -36 19 -76 22
-90 14 -71 35 -184 39 -208 2 -15 7 -38 10 -52 3 -14 8 -38 10 -55 4 -28 12
-74 20 -120 1 -11 10 -74 19 -140 9 -66 18 -131 20 -145 2 -14 7 -47 10 -75 3
-27 9 -84 15 -125 5 -41 12 -97 15 -125 3 -27 10 -84 15 -125 5 -41 11 -97 14
-125 3 -27 8 -68 10 -90 3 -22 13 -98 21 -170 8 -71 17 -143 20 -160 2 -16 9
-73 15 -125 6 -52 13 -106 15 -119 2 -13 7 -45 11 -70 3 -25 8 -57 10 -71 2
-14 8 -59 14 -100 6 -41 12 -86 15 -100 2 -14 11 -68 20 -120 30 -177 101
-468 132 -540 3 -8 7 -19 9 -25 1 -5 13 -39 27 -75 182 -471 477 -745 857
-794 50 -7 229 -8 275 -1 17 2 44 6 60 9 17 3 46 8 65 11 42 7 235 63 259 74
9 5 27 13 41 18 129 49 307 164 415 269 194 189 310 432 301 631 -7 152 -83
224 -229 218 -67 -3 -124 -21 -288 -91 -212 -91 -338 -113 -450 -80 -195 56
-324 270 -428 706 -28 115 -92 427 -105 510 -3 19 -12 71 -20 115 -8 44 -17
98 -21 120 -3 22 -7 47 -10 55 -2 8 -6 38 -10 65 -3 28 -12 88 -20 135 -8 47
-16 103 -20 125 -3 22 -10 65 -15 95 -5 30 -12 71 -15 90 -30 206 -47 322 -51
355 -4 32 -32 220 -58 395 -2 14 -9 57 -16 95 -6 39 -14 88 -16 110 -5 38 -30
190 -40 245 -2 14 -11 61 -19 105 -92 514 -207 899 -342 1143 -62 114 -122
193 -222 293 -239 238 -478 342 -764 333 -140 -4 -126 -3 -227 -25 -182 -41
-382 -129 -590 -259 -166 -104 -268 -187 -410 -329 -308 -310 -602 -737 -1004
-1456 -16 -27 -40 -70 -54 -95 -108 -192 -250 -445 -277 -495 -18 -33 -56
-100 -84 -148 -28 -49 -51 -90 -51 -92 0 -5 -222 -393 -353 -615 -192 -326
-357 -594 -562 -910 -69 -105 -143 -185 -182 -195 -35 -8 -63 20 -74 76 -8 43
-5 258 5 309 2 14 7 48 11 75 3 28 8 59 10 70 4 18 7 39 20 125 2 14 15 90 30
170 14 80 28 161 31 180 2 19 9 55 14 80 8 39 35 191 55 310 3 19 8 42 10 50
2 8 6 33 9 55 4 22 8 51 11 65 10 46 15 75 20 105 3 17 11 57 17 90 6 33 12
69 13 81 2 11 8 45 14 75 6 30 13 70 16 89 3 19 10 58 15 85 5 28 12 68 15 90
3 22 12 76 20 120 8 44 17 100 20 125 3 25 7 52 10 60 2 8 7 33 10 55 3 23 7
52 10 65 3 14 12 72 20 130 9 58 18 116 20 130 2 14 11 79 20 145 9 66 17 134
20 150 14 107 25 200 31 265 3 41 7 82 9 90 16 84 24 484 12 603 -41 413 -205
672 -452 716 -77 14 -163 12 -245 -5z"/>
<path d="M4265 4402 c-69 -7 -201 -44 -270 -76 -185 -85 -322 -223 -410 -409
-83 -176 -103 -387 -54 -572 56 -212 206 -405 400 -519 214 -124 503 -141 736
-44 66 27 179 93 208 121 7 7 25 24 41 38 116 104 203 247 246 407 24 89 32
270 17 347 -6 28 -12 60 -15 73 -9 43 -54 155 -86 211 -122 218 -374 387 -622
417 -58 8 -149 10 -191 6z"/>
</g>
</svg>
