<?xml version="1.0" encoding="UTF-8" standalone="no"?><!DOCTYPE svg PUBLIC "-//W3C//DTD SVG 1.1//EN" "http://www.w3.org/Graphics/SVG/1.1/DTD/svg11.dtd"><svg width="100%" height="100%" viewBox="0 0 292 228" version="1.1" xmlns="http://www.w3.org/2000/svg" xmlns:xlink="http://www.w3.org/1999/xlink" xml:space="preserve" style="fill-rule:evenodd;clip-rule:evenodd;stroke-linejoin:round;stroke-miterlimit:1.41421;"><g><path d="M60.558,11.186c0,-4.207 3.251,-6.788 9.753,-7.744c22.616,-2.295 46.645,-3.442 72.088,-3.442c31.662,0 54.561,4.446 68.696,13.337c14.135,8.892 21.202,23.758 21.202,44.601l0,81.17c0,4.78 -3.534,7.17 -10.601,7.17l-14.842,0c-7.067,0 -10.601,-2.39 -10.601,-7.17l0,-81.17c0,-13.385 -4.099,-22.755 -12.297,-28.109c-8.199,-5.354 -22.051,-8.031 -41.557,-8.031c-13.57,0 -28.835,0.383 -45.797,1.148l0,116.162c0,4.78 -3.534,7.17 -10.602,7.17l-14.841,0c-7.068,0 -10.601,-2.39 -10.601,-7.17l0,-127.922Z" style="fill:#f00;fill-rule:nonzero;"/><ellipse cx="143.424" cy="84.076" rx="16.19" ry="16.584" style="fill:#f00;"/><g transform="matrix(1.05499,0,0,1.05499,-259.587,-168.183)"><path d="M246.056,325.307c0,-0.703 0.304,-1.196 0.914,-1.477c3.375,-1.359 6.867,-2.039 10.476,-2.039c4.922,0 9,1.488 12.235,4.465c3.234,2.977 4.851,7.582 4.851,13.816c0,6.235 -1.617,10.84 -4.851,13.817c-3.235,2.976 -7.313,4.465 -12.235,4.465c-1.734,0 -3.539,-0.188 -5.414,-0.563l0,15.68c0,1.172 -0.586,1.758 -1.758,1.758l-2.461,0c-1.172,0 -1.757,-0.586 -1.757,-1.758l0,-48.164Zm5.976,27.351c1.781,0.328 3.352,0.493 4.711,0.493c3.516,0 6.352,-0.997 8.508,-2.989c2.156,-1.992 3.234,-5.355 3.234,-10.09c0,-4.5 -0.996,-7.757 -2.988,-9.773c-1.992,-2.016 -4.676,-3.023 -8.051,-3.023c-1.781,0 -3.586,0.21 -5.414,0.632l0,24.75Z" style="fill:#fff;fill-rule:nonzero;"/><path d="M315.806,355.611c0,1.032 -0.54,1.665 -1.618,1.899c-3.75,0.562 -7.734,0.844 -11.953,0.844c-5.25,0 -9.047,-1.09 -11.39,-3.27c-2.344,-2.18 -3.516,-5.824 -3.516,-10.933l0,-19.899c0,-1.172 0.586,-1.758 1.758,-1.758l2.461,0c1.172,0 1.758,0.586 1.758,1.758l0,19.899c0,3.281 0.679,5.578 2.039,6.89c1.359,1.313 3.656,1.969 6.89,1.969c2.25,0 4.781,-0.094 7.594,-0.281l0,-28.477c0,-1.172 0.586,-1.758 1.758,-1.758l2.461,0c1.172,0 1.758,0.586 1.758,1.758l0,31.359Z" style="fill:#fff;fill-rule:nonzero;"/><path d="M356.868,354.697c0.141,0.282 0.211,0.563 0.211,0.844c0,0.656 -0.398,1.125 -1.195,1.406c-2.578,0.938 -5.039,1.407 -7.383,1.407c-3.75,0 -6.82,-1.196 -9.211,-3.586c-2.391,-2.391 -3.586,-6.211 -3.586,-11.461l0,-15.469l-5.344,0c-1.172,0 -1.758,-0.586 -1.758,-1.758l0,-1.828c0,-1.172 0.586,-1.758 1.758,-1.758l5.344,0l0,-9.492c0,-1.172 0.586,-1.758 1.758,-1.758l2.461,0c1.172,0 1.758,0.586 1.758,1.758l0,9.492l11.531,0c1.172,0 1.758,0.586 1.758,1.758l0,1.828c0,1.172 -0.586,1.758 -1.758,1.758l-11.531,0l0,15.469c0,3.562 0.585,6.047 1.757,7.453c1.172,1.406 2.86,2.109 5.063,2.109c1.734,0 3.492,-0.328 5.273,-0.984c0.188,-0.094 0.469,-0.141 0.844,-0.141c0.656,0 1.148,0.375 1.477,1.125l0.773,1.828Z" style="fill:#fff;fill-rule:nonzero;"/><path d="M387.595,347.807c1.171,0 1.757,0.586 1.757,1.758l0,6.328c0,1.172 -0.586,1.758 -1.757,1.758l-7.032,0c-1.172,0 -1.757,-0.586 -1.757,-1.758l0,-6.328c0,-1.172 0.585,-1.758 1.757,-1.758l7.032,0Z" style="fill:#f00;fill-rule:nonzero;"/><path d="M411.149,324.533c0,-1.031 0.539,-1.664 1.617,-1.898c3.75,-0.563 7.735,-0.844 11.954,-0.844c5.25,0 9.046,1.09 11.39,3.27c2.344,2.179 3.516,5.824 3.516,10.933l0,19.899c0,1.172 -0.586,1.758 -1.758,1.758l-2.461,0c-1.172,0 -1.758,-0.586 -1.758,-1.758l0,-19.899c0,-3.281 -0.679,-5.578 -2.039,-6.89c-1.359,-1.313 -3.656,-1.969 -6.89,-1.969c-2.25,0 -4.782,0.094 -7.594,0.281l0,28.477c0,1.172 -0.586,1.758 -1.758,1.758l-2.461,0c-1.172,0 -1.758,-0.586 -1.758,-1.758l0,-31.36Z" style="fill:#fff;fill-rule:nonzero;"/><path d="M480.97,353.924c0.14,0.281 0.211,0.562 0.211,0.844c0,0.703 -0.375,1.195 -1.125,1.476c-3.282,1.407 -6.797,2.11 -10.547,2.11c-4.922,0 -9,-1.489 -12.235,-4.465c-3.234,-2.977 -4.851,-7.582 -4.851,-13.817c0,-3.796 0.656,-7.078 1.968,-9.843c1.313,-2.766 3.071,-4.864 5.274,-6.293c2.203,-1.43 4.641,-2.145 7.312,-2.145c2.438,0 4.723,0.621 6.856,1.863c2.133,1.243 3.844,3.059 5.133,5.45c1.289,2.39 1.933,5.226 1.933,8.507l0,1.618c0,1.172 -0.586,1.757 -1.758,1.757l-20.671,0c0.14,4.125 1.277,7.137 3.41,9.036c2.133,1.898 4.769,2.847 7.91,2.847c2.437,0 5.18,-0.539 8.226,-1.617c0.188,-0.094 0.446,-0.141 0.774,-0.141c0.703,0 1.195,0.375 1.476,1.125l0.704,1.688Zm-13.922,-26.789c-1.969,0 -3.75,0.75 -5.344,2.25c-1.594,1.5 -2.508,3.562 -2.742,6.187l15.961,0c0,-1.781 -0.399,-3.304 -1.196,-4.57c-0.796,-1.266 -1.793,-2.226 -2.988,-2.883c-1.195,-0.656 -2.426,-0.984 -3.691,-0.984Z" style="fill:#fff;fill-rule:nonzero;"/><path d="M521.962,354.697c0.14,0.282 0.211,0.563 0.211,0.844c0,0.656 -0.399,1.125 -1.196,1.406c-2.578,0.938 -5.039,1.407 -7.382,1.407c-3.75,0 -6.821,-1.196 -9.211,-3.586c-2.391,-2.391 -3.586,-6.211 -3.586,-11.461l0,-15.469l-5.344,0c-1.172,0 -1.758,-0.586 -1.758,-1.758l0,-1.828c0,-1.172 0.586,-1.758 1.758,-1.758l5.344,0l0,-9.492c0,-1.172 0.586,-1.758 1.758,-1.758l2.46,0c1.172,0 1.758,0.586 1.758,1.758l0,9.492l11.532,0c1.171,0 1.757,0.586 1.757,1.758l0,1.828c0,1.172 -0.586,1.758 -1.757,1.758l-11.532,0l0,15.469c0,3.562 0.586,6.047 1.758,7.453c1.172,1.406 2.859,2.109 5.063,2.109c1.734,0 3.492,-0.328 5.273,-0.984c0.188,-0.094 0.469,-0.141 0.844,-0.141c0.656,0 1.148,0.375 1.476,1.125l0.774,1.828Z" style="fill:#fff;fill-rule:nonzero;"/></g></g></svg>